<svg xmlns="http://www.w3.org/2000/svg" viewBox="0 0 1920 1080"><g transform="
          rotate(0 960 540) 
          translate(-0 -0)
          scale(1)
        "><rect width="1920" height="1080" fill="rgb(184, 171, 255)"></rect><g transform="translate(0, 0)"><path fill="rgb(170, 155, 245)" fill-opacity="1" d="M0,96.257L17.778,95.475C35.556,94.693,71.111,93.128,106.667,92.886C142.222,92.643,177.778,93.723,213.333,93.844C248.889,93.965,284.444,93.129,320,82.686C355.556,72.244,391.111,52.195,426.667,50.502C462.222,48.809,497.778,65.471,533.333,60.364C568.889,55.258,604.444,28.382,640,26.858C675.556,25.334,711.111,49.161,746.667,55.096C782.222,61.031,817.778,49.074,853.333,38.006C888.889,26.938,924.444,16.761,960,22.014C995.556,27.268,1031.111,47.953,1066.667,51.683C1102.222,55.413,1137.778,42.187,1173.333,35.567C1208.889,28.948,1244.444,28.934,1280,38.529C1315.556,48.125,1351.111,67.33,1386.667,77.645C1422.222,87.959,1457.778,89.383,1493.333,77.639C1528.889,65.894,1564.444,40.981,1600,30.715C1635.556,20.45,1671.111,24.832,1706.667,34.438C1742.222,44.044,1777.778,58.872,1813.333,69.363C1848.889,79.853,1884.444,86.005,1902.222,89.08L1920,92.156L1920,1080L1902.222,1080C1884.444,1080,1848.889,1080,1813.333,1080C1777.778,1080,1742.222,1080,1706.667,1080C1671.111,1080,1635.556,1080,1600,1080C1564.444,1080,1528.889,1080,1493.333,1080C1457.778,1080,1422.222,1080,1386.667,1080C1351.111,1080,1315.556,1080,1280,1080C1244.444,1080,1208.889,1080,1173.333,1080C1137.778,1080,1102.222,1080,1066.667,1080C1031.111,1080,995.556,1080,960,1080C924.444,1080,888.889,1080,853.333,1080C817.778,1080,782.222,1080,746.667,1080C711.111,1080,675.556,1080,640,1080C604.444,1080,568.889,1080,533.333,1080C497.778,1080,462.222,1080,426.667,1080C391.111,1080,355.556,1080,320,1080C284.444,1080,248.889,1080,213.333,1080C177.778,1080,142.222,1080,106.667,1080C71.111,1080,35.556,1080,17.778,1080L0,1080Z"></path></g><g transform="translate(0, 98.18181818181819)"><path fill="rgb(155, 140, 235)" fill-opacity="1" d="M0,49.425L17.778,42.054C35.556,34.684,71.111,19.943,106.667,11.827C142.222,3.711,177.778,2.22,213.333,11.203C248.889,20.186,284.444,39.643,320,45.759C355.556,51.874,391.111,44.649,426.667,37.139C462.222,29.63,497.778,21.835,533.333,19.706C568.889,17.577,604.444,21.112,640,23.62C675.556,26.128,711.111,27.609,746.667,36.288C782.222,44.967,817.778,60.846,853.333,71.659C888.889,82.472,924.444,88.221,960,91.669C995.556,95.117,1031.111,96.264,1066.667,89.625C1102.222,82.985,1137.778,68.558,1173.333,57.08C1208.889,45.602,1244.444,37.073,1280,29.628C1315.556,22.184,1351.111,15.824,1386.667,25.22C1422.222,34.616,1457.778,59.767,1493.333,74.227C1528.889,88.688,1564.444,92.458,1600,94.477C1635.556,96.496,1671.111,96.763,1706.667,91.168C1742.222,85.572,1777.778,74.114,1813.333,66.959C1848.889,59.804,1884.444,56.952,1902.222,55.526L1920,54.1L1920,981.818L1902.222,981.818C1884.444,981.818,1848.889,981.818,1813.333,981.818C1777.778,981.818,1742.222,981.818,1706.667,981.818C1671.111,981.818,1635.556,981.818,1600,981.818C1564.444,981.818,1528.889,981.818,1493.333,981.818C1457.778,981.818,1422.222,981.818,1386.667,981.818C1351.111,981.818,1315.556,981.818,1280,981.818C1244.444,981.818,1208.889,981.818,1173.333,981.818C1137.778,981.818,1102.222,981.818,1066.667,981.818C1031.111,981.818,995.556,981.818,960,981.818C924.444,981.818,888.889,981.818,853.333,981.818C817.778,981.818,782.222,981.818,746.667,981.818C711.111,981.818,675.556,981.818,640,981.818C604.444,981.818,568.889,981.818,533.333,981.818C497.778,981.818,462.222,981.818,426.667,981.818C391.111,981.818,355.556,981.818,320,981.818C284.444,981.818,248.889,981.818,213.333,981.818C177.778,981.818,142.222,981.818,106.667,981.818C71.111,981.818,35.556,981.818,17.778,981.818L0,981.818Z"></path></g><g transform="translate(0, 196.36363636363637)"><path fill="rgb(141, 124, 224)" fill-opacity="1" d="M0,27.693L17.778,39.047C35.556,50.401,71.111,73.109,106.667,82.578C142.222,92.048,177.778,88.279,213.333,87.208C248.889,86.137,284.444,87.763,320,85.876C355.556,83.99,391.111,78.592,426.667,65.124C462.222,51.657,497.778,30.121,533.333,32.7C568.889,35.279,604.444,61.973,640,68.038C675.556,74.103,711.111,59.538,746.667,47.154C782.222,34.769,817.778,24.564,853.333,24.354C888.889,24.144,924.444,33.928,960,47.562C995.556,61.196,1031.111,78.68,1066.667,79.729C1102.222,80.778,1137.778,65.391,1173.333,56.324C1208.889,47.256,1244.444,44.509,1280,37.208C1315.556,29.907,1351.111,18.053,1386.667,11.985C1422.222,5.917,1457.778,5.636,1493.333,10.974C1528.889,16.311,1564.444,27.267,1600,42.116C1635.556,56.964,1671.111,75.705,1706.667,82.059C1742.222,88.414,1777.778,82.382,1813.333,68.877C1848.889,55.372,1884.444,34.394,1902.222,23.904L1920,13.415L1920,883.636L1902.222,883.636C1884.444,883.636,1848.889,883.636,1813.333,883.636C1777.778,883.636,1742.222,883.636,1706.667,883.636C1671.111,883.636,1635.556,883.636,1600,883.636C1564.444,883.636,1528.889,883.636,1493.333,883.636C1457.778,883.636,1422.222,883.636,1386.667,883.636C1351.111,883.636,1315.556,883.636,1280,883.636C1244.444,883.636,1208.889,883.636,1173.333,883.636C1137.778,883.636,1102.222,883.636,1066.667,883.636C1031.111,883.636,995.556,883.636,960,883.636C924.444,883.636,888.889,883.636,853.333,883.636C817.778,883.636,782.222,883.636,746.667,883.636C711.111,883.636,675.556,883.636,640,883.636C604.444,883.636,568.889,883.636,533.333,883.636C497.778,883.636,462.222,883.636,426.667,883.636C391.111,883.636,355.556,883.636,320,883.636C284.444,883.636,248.889,883.636,213.333,883.636C177.778,883.636,142.222,883.636,106.667,883.636C71.111,883.636,35.556,883.636,17.778,883.636L0,883.636Z"></path></g><g transform="translate(0, 294.5454545454545)"><path fill="rgb(127, 109, 214)" fill-opacity="1" d="M0,91.838L17.778,82.851C35.556,73.864,71.111,55.89,106.667,51.677C142.222,47.465,177.778,57.014,213.333,57.602C248.889,58.19,284.444,49.818,320,50.801C355.556,51.785,391.111,62.124,426.667,67.154C462.222,72.183,497.778,71.903,533.333,67.079C568.889,62.255,604.444,52.887,640,50.184C675.556,47.481,711.111,51.442,746.667,53.379C782.222,55.315,817.778,55.226,853.333,54.263C888.889,53.3,924.444,51.461,960,49.848C995.556,48.235,1031.111,46.847,1066.667,40.243C1102.222,33.639,1137.778,21.82,1173.333,14.761C1208.889,7.703,1244.444,5.407,1280,8.686C1315.556,11.965,1351.111,20.821,1386.667,26.388C1422.222,31.954,1457.778,34.233,1493.333,34.749C1528.889,35.266,1564.444,34.02,1600,36.93C1635.556,39.841,1671.111,46.907,1706.667,51.999C1742.222,57.091,1777.778,60.209,1813.333,65.089C1848.889,69.97,1884.444,76.613,1902.222,79.935L1920,83.257L1920,785.455L1902.222,785.455C1884.444,785.455,1848.889,785.455,1813.333,785.455C1777.778,785.455,1742.222,785.455,1706.667,785.455C1671.111,785.455,1635.556,785.455,1600,785.455C1564.444,785.455,1528.889,785.455,1493.333,785.455C1457.778,785.455,1422.222,785.455,1386.667,785.455C1351.111,785.455,1315.556,785.455,1280,785.455C1244.444,785.455,1208.889,785.455,1173.333,785.455C1137.778,785.455,1102.222,785.455,1066.667,785.455C1031.111,785.455,995.556,785.455,960,785.455C924.444,785.455,888.889,785.455,853.333,785.455C817.778,785.455,782.222,785.455,746.667,785.455C711.111,785.455,675.556,785.455,640,785.455C604.444,785.455,568.889,785.455,533.333,785.455C497.778,785.455,462.222,785.455,426.667,785.455C391.111,785.455,355.556,785.455,320,785.455C284.444,785.455,248.889,785.455,213.333,785.455C177.778,785.455,142.222,785.455,106.667,785.455C71.111,785.455,35.556,785.455,17.778,785.455L0,785.455Z"></path></g><g transform="translate(0, 392.72727272727275)"><path fill="rgb(112, 93, 204)" fill-opacity="1" d="M0,56.519L17.778,51.76C35.556,47,71.111,37.481,106.667,37.718C142.222,37.955,177.778,47.949,213.333,46.362C248.889,44.774,284.444,31.605,320,35.179C355.556,38.753,391.111,59.07,426.667,63.059C462.222,67.047,497.778,54.706,533.333,57.455C568.889,60.204,604.444,78.044,640,85.563C675.556,93.081,711.111,90.279,746.667,82.413C782.222,74.546,817.778,61.615,853.333,60.822C888.889,60.029,924.444,71.373,960,70.441C995.556,69.509,1031.111,56.301,1066.667,50.87C1102.222,45.439,1137.778,47.785,1173.333,42.647C1208.889,37.509,1244.444,24.889,1280,26.942C1315.556,28.995,1351.111,45.723,1386.667,43.7C1422.222,41.677,1457.778,20.904,1493.333,17.718C1528.889,14.533,1564.444,28.934,1600,42.252C1635.556,55.569,1671.111,67.802,1706.667,60.767C1742.222,53.731,1777.778,27.428,1813.333,25.967C1848.889,24.507,1884.444,47.889,1902.222,59.581L1920,71.272L1920,687.273L1902.222,687.273C1884.444,687.273,1848.889,687.273,1813.333,687.273C1777.778,687.273,1742.222,687.273,1706.667,687.273C1671.111,687.273,1635.556,687.273,1600,687.273C1564.444,687.273,1528.889,687.273,1493.333,687.273C1457.778,687.273,1422.222,687.273,1386.667,687.273C1351.111,687.273,1315.556,687.273,1280,687.273C1244.444,687.273,1208.889,687.273,1173.333,687.273C1137.778,687.273,1102.222,687.273,1066.667,687.273C1031.111,687.273,995.556,687.273,960,687.273C924.444,687.273,888.889,687.273,853.333,687.273C817.778,687.273,782.222,687.273,746.667,687.273C711.111,687.273,675.556,687.273,640,687.273C604.444,687.273,568.889,687.273,533.333,687.273C497.778,687.273,462.222,687.273,426.667,687.273C391.111,687.273,355.556,687.273,320,687.273C284.444,687.273,248.889,687.273,213.333,687.273C177.778,687.273,142.222,687.273,106.667,687.273C71.111,687.273,35.556,687.273,17.778,687.273L0,687.273Z"></path></g><g transform="translate(0, 490.9090909090909)"><path fill="rgb(98, 78, 194)" fill-opacity="1" d="M0,23.297L17.778,27.127C35.556,30.957,71.111,38.617,106.667,40.893C142.222,43.169,177.778,40.061,213.333,45.952C248.889,51.843,284.444,66.734,320,61.879C355.556,57.024,391.111,32.422,426.667,30.905C462.222,29.388,497.778,50.956,533.333,58.005C568.889,65.053,604.444,57.582,640,60.274C675.556,62.966,711.111,75.821,746.667,75.999C782.222,76.177,817.778,63.679,853.333,49.62C888.889,35.561,924.444,19.942,960,18.723C995.556,17.504,1031.111,30.685,1066.667,44.289C1102.222,57.892,1137.778,71.919,1173.333,67.95C1208.889,63.981,1244.444,42.017,1280,31.408C1315.556,20.8,1351.111,21.546,1386.667,30.438C1422.222,39.331,1457.778,56.37,1493.333,67.634C1528.889,78.899,1564.444,84.389,1600,80.19C1635.556,75.992,1671.111,62.105,1706.667,61.073C1742.222,60.042,1777.778,71.866,1813.333,71.527C1848.889,71.189,1884.444,58.687,1902.222,52.437L1920,46.186L1920,589.091L1902.222,589.091C1884.444,589.091,1848.889,589.091,1813.333,589.091C1777.778,589.091,1742.222,589.091,1706.667,589.091C1671.111,589.091,1635.556,589.091,1600,589.091C1564.444,589.091,1528.889,589.091,1493.333,589.091C1457.778,589.091,1422.222,589.091,1386.667,589.091C1351.111,589.091,1315.556,589.091,1280,589.091C1244.444,589.091,1208.889,589.091,1173.333,589.091C1137.778,589.091,1102.222,589.091,1066.667,589.091C1031.111,589.091,995.556,589.091,960,589.091C924.444,589.091,888.889,589.091,853.333,589.091C817.778,589.091,782.222,589.091,746.667,589.091C711.111,589.091,675.556,589.091,640,589.091C604.444,589.091,568.889,589.091,533.333,589.091C497.778,589.091,462.222,589.091,426.667,589.091C391.111,589.091,355.556,589.091,320,589.091C284.444,589.091,248.889,589.091,213.333,589.091C177.778,589.091,142.222,589.091,106.667,589.091C71.111,589.091,35.556,589.091,17.778,589.091L0,589.091Z"></path></g><g transform="translate(0, 589.090909090909)"><path fill="rgb(83, 62, 184)" fill-opacity="1" d="M0,78.106L17.778,75.335C35.556,72.564,71.111,67.021,106.667,59.385C142.222,51.748,177.778,42.016,213.333,36.404C248.889,30.792,284.444,29.299,320,24.694C355.556,20.089,391.111,12.372,426.667,21.749C462.222,31.125,497.778,57.595,533.333,72.364C568.889,87.134,604.444,90.202,640,78.863C675.556,67.524,711.111,41.777,746.667,28.691C782.222,15.606,817.778,15.182,853.333,14.085C888.889,12.989,924.444,11.22,960,13.754C995.556,16.287,1031.111,23.122,1066.667,27.253C1102.222,31.384,1137.778,32.811,1173.333,31.491C1208.889,30.172,1244.444,26.106,1280,23.754C1315.556,21.401,1351.111,20.762,1386.667,24.901C1422.222,29.041,1457.778,37.959,1493.333,45.372C1528.889,52.786,1564.444,58.695,1600,67.095C1635.556,75.495,1671.111,86.386,1706.667,78.241C1742.222,70.096,1777.778,42.914,1813.333,29.417C1848.889,15.92,1884.444,16.108,1902.222,16.202L1920,16.296L1920,490.909L1902.222,490.909C1884.444,490.909,1848.889,490.909,1813.333,490.909C1777.778,490.909,1742.222,490.909,1706.667,490.909C1671.111,490.909,1635.556,490.909,1600,490.909C1564.444,490.909,1528.889,490.909,1493.333,490.909C1457.778,490.909,1422.222,490.909,1386.667,490.909C1351.111,490.909,1315.556,490.909,1280,490.909C1244.444,490.909,1208.889,490.909,1173.333,490.909C1137.778,490.909,1102.222,490.909,1066.667,490.909C1031.111,490.909,995.556,490.909,960,490.909C924.444,490.909,888.889,490.909,853.333,490.909C817.778,490.909,782.222,490.909,746.667,490.909C711.111,490.909,675.556,490.909,640,490.909C604.444,490.909,568.889,490.909,533.333,490.909C497.778,490.909,462.222,490.909,426.667,490.909C391.111,490.909,355.556,490.909,320,490.909C284.444,490.909,248.889,490.909,213.333,490.909C177.778,490.909,142.222,490.909,106.667,490.909C71.111,490.909,35.556,490.909,17.778,490.909L0,490.909Z"></path></g><g transform="translate(0, 687.2727272727273)"><path fill="rgb(69, 47, 174)" fill-opacity="1" d="M0,18.643L17.778,28.789C35.556,38.935,71.111,59.227,106.667,65.302C142.222,71.377,177.778,63.236,213.333,59.417C248.889,55.598,284.444,56.102,320,52.063C355.556,48.024,391.111,39.442,426.667,45.659C462.222,51.876,497.778,72.891,533.333,67.786C568.889,62.681,604.444,31.455,640,21.864C675.556,12.273,711.111,24.316,746.667,25.354C782.222,26.393,817.778,16.426,853.333,21.184C888.889,25.942,924.444,45.425,960,51.942C995.556,58.459,1031.111,52.009,1066.667,42.634C1102.222,33.259,1137.778,20.959,1173.333,21.826C1208.889,22.694,1244.444,36.729,1280,42.438C1315.556,48.147,1351.111,45.529,1386.667,50.275C1422.222,55.022,1457.778,67.134,1493.333,65.505C1528.889,63.876,1564.444,48.507,1600,42.161C1635.556,35.814,1671.111,38.491,1706.667,46.539C1742.222,54.588,1777.778,68.009,1813.333,63.498C1848.889,58.988,1884.444,36.545,1902.222,25.324L1920,14.103L1920,392.727L1902.222,392.727C1884.444,392.727,1848.889,392.727,1813.333,392.727C1777.778,392.727,1742.222,392.727,1706.667,392.727C1671.111,392.727,1635.556,392.727,1600,392.727C1564.444,392.727,1528.889,392.727,1493.333,392.727C1457.778,392.727,1422.222,392.727,1386.667,392.727C1351.111,392.727,1315.556,392.727,1280,392.727C1244.444,392.727,1208.889,392.727,1173.333,392.727C1137.778,392.727,1102.222,392.727,1066.667,392.727C1031.111,392.727,995.556,392.727,960,392.727C924.444,392.727,888.889,392.727,853.333,392.727C817.778,392.727,782.222,392.727,746.667,392.727C711.111,392.727,675.556,392.727,640,392.727C604.444,392.727,568.889,392.727,533.333,392.727C497.778,392.727,462.222,392.727,426.667,392.727C391.111,392.727,355.556,392.727,320,392.727C284.444,392.727,248.889,392.727,213.333,392.727C177.778,392.727,142.222,392.727,106.667,392.727C71.111,392.727,35.556,392.727,17.778,392.727L0,392.727Z"></path></g><g transform="translate(0, 785.4545454545455)"><path fill="rgb(55, 31, 163)" fill-opacity="1" d="M0,34.159L17.778,39.699C35.556,45.239,71.111,56.32,106.667,65.21C142.222,74.1,177.778,80.8,213.333,83.722C248.889,86.645,284.444,85.79,320,71.505C355.556,57.22,391.111,29.507,426.667,20.634C462.222,11.761,497.778,21.73,533.333,28.024C568.889,34.319,604.444,36.939,640,38.614C675.556,40.288,711.111,41.016,746.667,49.235C782.222,57.453,817.778,73.162,853.333,72.817C888.889,72.471,924.444,56.07,960,52.888C995.556,49.707,1031.111,59.744,1066.667,60.662C1102.222,61.581,1137.778,53.381,1173.333,44.781C1208.889,36.181,1244.444,27.18,1280,32.608C1315.556,38.036,1351.111,57.894,1386.667,67.439C1422.222,76.984,1457.778,76.217,1493.333,68.524C1528.889,60.831,1564.444,46.212,1600,41.787C1635.556,37.363,1671.111,43.132,1706.667,41.637C1742.222,40.141,1777.778,31.382,1813.333,37.793C1848.889,44.204,1884.444,65.786,1902.222,76.577L1920,87.368L1920,294.545L1902.222,294.545C1884.444,294.545,1848.889,294.545,1813.333,294.545C1777.778,294.545,1742.222,294.545,1706.667,294.545C1671.111,294.545,1635.556,294.545,1600,294.545C1564.444,294.545,1528.889,294.545,1493.333,294.545C1457.778,294.545,1422.222,294.545,1386.667,294.545C1351.111,294.545,1315.556,294.545,1280,294.545C1244.444,294.545,1208.889,294.545,1173.333,294.545C1137.778,294.545,1102.222,294.545,1066.667,294.545C1031.111,294.545,995.556,294.545,960,294.545C924.444,294.545,888.889,294.545,853.333,294.545C817.778,294.545,782.222,294.545,746.667,294.545C711.111,294.545,675.556,294.545,640,294.545C604.444,294.545,568.889,294.545,533.333,294.545C497.778,294.545,462.222,294.545,426.667,294.545C391.111,294.545,355.556,294.545,320,294.545C284.444,294.545,248.889,294.545,213.333,294.545C177.778,294.545,142.222,294.545,106.667,294.545C71.111,294.545,35.556,294.545,17.778,294.545L0,294.545Z"></path></g><g transform="translate(0, 883.6363636363637)"><path fill="rgb(40, 16, 153)" fill-opacity="1" d="M0,83.837L17.778,77.463C35.556,71.089,71.111,58.341,106.667,58.528C142.222,58.715,177.778,71.839,213.333,74.596C248.889,77.354,284.444,69.746,320,60.983C355.556,52.221,391.111,42.303,426.667,47.589C462.222,52.874,497.778,73.364,533.333,74.801C568.889,76.237,604.444,58.621,640,52.441C675.556,46.261,711.111,51.518,746.667,49.64C782.222,47.762,817.778,38.749,853.333,45.222C888.889,51.695,924.444,73.654,960,81.412C995.556,89.169,1031.111,82.727,1066.667,72.545C1102.222,62.363,1137.778,48.443,1173.333,42.801C1208.889,37.16,1244.444,39.797,1280,42.019C1315.556,44.24,1351.111,46.046,1386.667,48.884C1422.222,51.722,1457.778,55.592,1493.333,55.83C1528.889,56.068,1564.444,52.674,1600,49.42C1635.556,46.166,1671.111,43.053,1706.667,47.347C1742.222,51.642,1777.778,63.344,1813.333,66.409C1848.889,69.473,1884.444,63.901,1902.222,61.114L1920,58.328L1920,196.364L1902.222,196.364C1884.444,196.364,1848.889,196.364,1813.333,196.364C1777.778,196.364,1742.222,196.364,1706.667,196.364C1671.111,196.364,1635.556,196.364,1600,196.364C1564.444,196.364,1528.889,196.364,1493.333,196.364C1457.778,196.364,1422.222,196.364,1386.667,196.364C1351.111,196.364,1315.556,196.364,1280,196.364C1244.444,196.364,1208.889,196.364,1173.333,196.364C1137.778,196.364,1102.222,196.364,1066.667,196.364C1031.111,196.364,995.556,196.364,960,196.364C924.444,196.364,888.889,196.364,853.333,196.364C817.778,196.364,782.222,196.364,746.667,196.364C711.111,196.364,675.556,196.364,640,196.364C604.444,196.364,568.889,196.364,533.333,196.364C497.778,196.364,462.222,196.364,426.667,196.364C391.111,196.364,355.556,196.364,320,196.364C284.444,196.364,248.889,196.364,213.333,196.364C177.778,196.364,142.222,196.364,106.667,196.364C71.111,196.364,35.556,196.364,17.778,196.364L0,196.364Z"></path></g><g transform="translate(0, 981.8181818181818)"><path fill="rgb(26, 0, 143)" fill-opacity="1" d="M0,16.645L17.778,19.508C35.556,22.371,71.111,28.097,106.667,31.757C142.222,35.417,177.778,37.011,213.333,39.683C248.889,42.355,284.444,46.106,320,44.794C355.556,43.482,391.111,37.108,426.667,34.072C462.222,31.037,497.778,31.342,533.333,32.359C568.889,33.376,604.444,35.105,640,35.132C675.556,35.159,711.111,33.484,746.667,37.874C782.222,42.264,817.778,52.718,853.333,50.393C888.889,48.067,924.444,32.961,960,27.553C995.556,22.145,1031.111,26.435,1066.667,33.541C1102.222,40.647,1137.778,50.571,1173.333,50.057C1208.889,49.543,1244.444,38.592,1280,33.478C1315.556,28.364,1351.111,29.086,1386.667,38.448C1422.222,47.811,1457.778,65.814,1493.333,66.491C1528.889,67.168,1564.444,50.518,1600,37.708C1635.556,24.898,1671.111,15.927,1706.667,17.735C1742.222,19.543,1777.778,32.129,1813.333,42.611C1848.889,53.094,1884.444,61.472,1902.222,65.661L1920,69.85L1920,98.182L1902.222,98.182C1884.444,98.182,1848.889,98.182,1813.333,98.182C1777.778,98.182,1742.222,98.182,1706.667,98.182C1671.111,98.182,1635.556,98.182,1600,98.182C1564.444,98.182,1528.889,98.182,1493.333,98.182C1457.778,98.182,1422.222,98.182,1386.667,98.182C1351.111,98.182,1315.556,98.182,1280,98.182C1244.444,98.182,1208.889,98.182,1173.333,98.182C1137.778,98.182,1102.222,98.182,1066.667,98.182C1031.111,98.182,995.556,98.182,960,98.182C924.444,98.182,888.889,98.182,853.333,98.182C817.778,98.182,782.222,98.182,746.667,98.182C711.111,98.182,675.556,98.182,640,98.182C604.444,98.182,568.889,98.182,533.333,98.182C497.778,98.182,462.222,98.182,426.667,98.182C391.111,98.182,355.556,98.182,320,98.182C284.444,98.182,248.889,98.182,213.333,98.182C177.778,98.182,142.222,98.182,106.667,98.182C71.111,98.182,35.556,98.182,17.778,98.182L0,98.182Z"></path></g></g></svg>